<svg xmlns="http://www.w3.org/2000/svg" xmlns:xlink="http://www.w3.org/1999/xlink" width="98" zoomAndPan="magnify" viewBox="0 0 73.5 30.000001" height="40" preserveAspectRatio="xMidYMid meet" version="1.2"><g id="c699c35897"><path style=" stroke:none;fill-rule:nonzero;fill:#005cff;fill-opacity:1;" d="M 14.132812 2.859375 C 7.679688 2.859375 2.449219 8.078125 2.449219 14.515625 C 2.449219 20.949219 7.679688 26.167969 14.132812 26.167969 C 20.585938 26.167969 25.820312 20.949219 25.820312 14.515625 C 25.820312 8.078125 20.585938 2.859375 14.132812 2.859375 Z M 10.785156 8.105469 C 11.378906 8.105469 11.960938 8.277344 12.464844 8.59375 C 12.96875 8.914062 13.371094 9.367188 13.621094 9.90625 C 13.484375 9.921875 13.347656 9.945312 13.210938 9.972656 C 13.074219 10 12.941406 10.035156 12.808594 10.074219 C 12.605469 9.71875 12.3125 9.425781 11.957031 9.21875 C 11.601562 9.015625 11.199219 8.90625 10.789062 8.90625 C 10.378906 8.90625 9.976562 9.011719 9.621094 9.214844 C 9.265625 9.421875 8.96875 9.714844 8.765625 10.066406 C 8.558594 10.421875 8.449219 10.824219 8.449219 11.234375 C 8.449219 11.640625 8.554688 12.042969 8.761719 12.398438 C 8.964844 12.753906 9.261719 13.046875 9.617188 13.25 C 9.96875 13.457031 10.375 13.5625 10.785156 13.5625 C 10.816406 13.5625 10.847656 13.5625 10.882812 13.5625 C 11.433594 13.539062 11.957031 13.320312 12.363281 12.949219 C 12.769531 12.578125 13.03125 12.074219 13.101562 11.527344 C 13.363281 11.4375 13.636719 11.378906 13.917969 11.355469 C 13.886719 12.136719 13.5625 12.875 13.015625 13.433594 C 12.464844 13.988281 11.726562 14.316406 10.945312 14.359375 C 10.890625 14.359375 10.835938 14.363281 10.785156 14.363281 C 10.722656 14.363281 10.664062 14.359375 10.605469 14.355469 C 10.601562 14.460938 10.601562 14.566406 10.609375 14.671875 C 10.609375 14.730469 10.613281 14.789062 10.621094 14.84375 C 10.628906 14.921875 10.636719 14.996094 10.652344 15.070312 C 10.773438 15.820312 11.136719 16.515625 11.6875 17.042969 L 11.140625 17.625 C 10.570312 17.078125 10.15625 16.382812 9.953125 15.617188 C 9.917969 15.488281 9.890625 15.359375 9.867188 15.226562 C 9.847656 15.125 9.835938 15.023438 9.824219 14.921875 C 9.820312 14.886719 9.820312 14.855469 9.816406 14.820312 C 9.800781 14.617188 9.800781 14.414062 9.8125 14.207031 C 9.101562 13.976562 8.5 13.503906 8.109375 12.867188 C 7.71875 12.234375 7.566406 11.480469 7.683594 10.742188 C 7.800781 10.007812 8.179688 9.339844 8.746094 8.855469 C 9.3125 8.371094 10.035156 8.105469 10.785156 8.105469 Z M 14.449219 18.898438 C 14.351562 18.90625 14.253906 18.910156 14.15625 18.910156 C 14.011719 18.910156 13.867188 18.902344 13.722656 18.886719 C 13.679688 18.996094 13.632812 19.105469 13.578125 19.210938 C 13.351562 19.65625 13.023438 20.042969 12.617188 20.332031 C 12.210938 20.625 11.738281 20.816406 11.242188 20.890625 C 10.746094 20.960938 10.242188 20.917969 9.765625 20.753906 C 9.292969 20.59375 8.863281 20.320312 8.519531 19.957031 C 8.171875 19.597656 7.917969 19.160156 7.777344 18.679688 C 7.632812 18.199219 7.609375 17.695312 7.703125 17.203125 C 7.800781 16.710938 8.011719 16.25 8.320312 15.859375 C 8.632812 15.464844 9.03125 15.152344 9.488281 14.949219 C 9.488281 14.949219 9.488281 14.953125 9.488281 14.957031 C 9.5 15.09375 9.519531 15.226562 9.546875 15.363281 C 9.574219 15.496094 9.605469 15.632812 9.640625 15.761719 C 9.285156 15.964844 8.984375 16.253906 8.777344 16.609375 C 8.566406 16.960938 8.453125 17.363281 8.449219 17.769531 C 8.445312 18.179688 8.550781 18.585938 8.753906 18.941406 C 8.957031 19.296875 9.25 19.59375 9.601562 19.800781 C 9.957031 20.007812 10.359375 20.121094 10.769531 20.121094 C 11.179688 20.125 11.585938 20.019531 11.941406 19.816406 C 12.296875 19.613281 12.59375 19.320312 12.800781 18.96875 C 13.007812 18.613281 13.117188 18.210938 13.121094 17.800781 C 13.121094 17.800781 13.121094 17.796875 13.121094 17.796875 C 13.117188 17.230469 12.914062 16.6875 12.542969 16.261719 C 12.171875 15.839844 11.660156 15.5625 11.097656 15.488281 C 11.054688 15.351562 11.019531 15.214844 10.992188 15.074219 C 10.976562 14.988281 10.964844 14.898438 10.957031 14.808594 C 10.953125 14.765625 10.949219 14.71875 10.945312 14.671875 C 11.742188 14.714844 12.496094 15.054688 13.046875 15.632812 C 13.597656 16.207031 13.910156 16.96875 13.917969 17.765625 C 13.917969 17.773438 13.917969 17.785156 13.917969 17.792969 C 13.917969 17.898438 13.914062 18 13.902344 18.101562 C 14.058594 18.113281 14.210938 18.113281 14.363281 18.105469 C 14.375 18.105469 14.382812 18.105469 14.394531 18.101562 C 15.230469 18.046875 16.023438 17.695312 16.625 17.113281 L 17.1875 17.679688 C 16.671875 18.179688 16.042969 18.542969 15.351562 18.742188 C 15.222656 18.777344 15.089844 18.808594 14.957031 18.832031 C 14.820312 18.859375 14.683594 18.878906 14.546875 18.890625 C 14.515625 18.894531 14.480469 18.898438 14.449219 18.898438 Z M 17.484375 20.921875 C 16.90625 20.921875 16.339844 20.761719 15.847656 20.460938 C 15.355469 20.160156 14.953125 19.730469 14.691406 19.214844 C 14.832031 19.199219 14.972656 19.175781 15.109375 19.148438 C 15.246094 19.121094 15.382812 19.085938 15.515625 19.046875 C 15.726562 19.378906 16.023438 19.652344 16.371094 19.839844 C 16.71875 20.03125 17.109375 20.125 17.503906 20.125 C 17.898438 20.121094 18.289062 20.015625 18.632812 19.824219 C 18.976562 19.628906 19.265625 19.351562 19.472656 19.015625 C 19.683594 18.679688 19.800781 18.296875 19.816406 17.902344 C 19.835938 17.507812 19.753906 17.113281 19.578125 16.761719 C 19.402344 16.40625 19.140625 16.101562 18.8125 15.878906 C 18.488281 15.652344 18.109375 15.515625 17.714844 15.476562 C 17.640625 15.46875 17.5625 15.464844 17.484375 15.464844 C 17.441406 15.464844 17.398438 15.464844 17.355469 15.46875 C 16.789062 15.5 16.257812 15.738281 15.851562 16.132812 C 15.449219 16.527344 15.199219 17.050781 15.15625 17.613281 C 14.902344 17.699219 14.640625 17.75 14.371094 17.765625 C 14.363281 17.769531 14.355469 17.769531 14.351562 17.769531 C 14.355469 16.957031 14.679688 16.183594 15.246094 15.605469 C 15.816406 15.027344 16.585938 14.691406 17.398438 14.667969 C 17.425781 14.667969 17.457031 14.667969 17.484375 14.667969 C 17.570312 14.667969 17.652344 14.671875 17.734375 14.679688 C 17.738281 14.574219 17.738281 14.46875 17.734375 14.363281 C 17.734375 14.359375 17.734375 14.355469 17.734375 14.351562 C 17.683594 13.511719 17.339844 12.722656 16.757812 12.113281 L 17.332031 11.558594 C 17.828125 12.074219 18.183594 12.703125 18.378906 13.386719 C 18.414062 13.515625 18.445312 13.648438 18.46875 13.78125 C 18.492188 13.914062 18.511719 14.046875 18.523438 14.183594 C 18.523438 14.230469 18.53125 14.273438 18.53125 14.316406 C 18.542969 14.492188 18.539062 14.671875 18.527344 14.84375 C 19.226562 15.089844 19.816406 15.574219 20.1875 16.210938 C 20.5625 16.847656 20.699219 17.59375 20.574219 18.324219 C 20.449219 19.050781 20.070312 19.710938 19.507812 20.1875 C 18.941406 20.660156 18.226562 20.921875 17.484375 20.921875 Z M 18.847656 14.050781 C 18.832031 13.910156 18.8125 13.773438 18.785156 13.636719 C 18.757812 13.5 18.722656 13.367188 18.683594 13.234375 C 19.03125 13.027344 19.316406 12.734375 19.515625 12.382812 C 19.714844 12.03125 19.820312 11.636719 19.820312 11.234375 C 19.820312 10.832031 19.714844 10.4375 19.515625 10.085938 C 19.316406 9.738281 19.03125 9.445312 18.683594 9.238281 C 18.339844 9.03125 17.945312 8.917969 17.542969 8.90625 C 17.136719 8.898438 16.738281 8.992188 16.382812 9.179688 C 16.027344 9.371094 15.726562 9.648438 15.511719 9.988281 C 15.296875 10.328125 15.171875 10.71875 15.152344 11.121094 C 15.148438 11.160156 15.148438 11.195312 15.148438 11.234375 C 15.148438 11.308594 15.152344 11.386719 15.160156 11.460938 C 15.210938 11.992188 15.449219 12.492188 15.828125 12.875 C 16.207031 13.253906 16.703125 13.492188 17.238281 13.550781 C 17.324219 13.8125 17.378906 14.085938 17.394531 14.359375 C 16.597656 14.335938 15.84375 14.011719 15.277344 13.453125 C 14.714844 12.894531 14.382812 12.144531 14.351562 11.351562 C 14.351562 11.3125 14.351562 11.273438 14.351562 11.234375 C 14.351562 11.160156 14.351562 11.085938 14.359375 11.015625 C 14.292969 11.011719 14.230469 11.007812 14.164062 11.007812 C 14.082031 11.007812 13.996094 11.011719 13.910156 11.019531 C 13.15625 11.070312 12.441406 11.363281 11.867188 11.851562 L 11.34375 11.25 C 11.8125 10.847656 12.363281 10.554688 12.957031 10.382812 C 13.085938 10.34375 13.21875 10.3125 13.351562 10.289062 C 13.484375 10.261719 13.617188 10.242188 13.753906 10.230469 C 13.890625 10.21875 14.027344 10.210938 14.164062 10.210938 C 14.28125 10.210938 14.398438 10.214844 14.515625 10.226562 C 14.683594 9.738281 14.96875 9.296875 15.347656 8.945312 C 15.722656 8.59375 16.183594 8.34375 16.683594 8.210938 C 17.183594 8.078125 17.707031 8.070312 18.210938 8.191406 C 18.710938 8.308594 19.175781 8.550781 19.5625 8.894531 C 19.949219 9.234375 20.246094 9.664062 20.425781 10.148438 C 20.605469 10.632812 20.664062 11.152344 20.589844 11.664062 C 20.519531 12.171875 20.324219 12.660156 20.019531 13.074219 C 19.714844 13.492188 19.3125 13.828125 18.847656 14.050781 Z M 18.847656 14.050781 "/><path style=" stroke:none;fill-rule:nonzero;fill:#005cff;fill-opacity:1;" d="M 30.085938 11.9375 C 30.503906 11.21875 31.105469 10.628906 31.835938 10.226562 C 32.574219 9.816406 33.40625 9.601562 34.253906 9.609375 C 35.257812 9.609375 36.148438 9.855469 36.929688 10.347656 C 37.710938 10.839844 38.277344 11.535156 38.632812 12.4375 L 36.773438 12.4375 C 36.53125 11.941406 36.191406 11.570312 35.757812 11.328125 C 35.324219 11.085938 34.824219 10.960938 34.253906 10.960938 C 33.671875 10.953125 33.09375 11.097656 32.585938 11.382812 C 32.097656 11.664062 31.699219 12.082031 31.441406 12.585938 C 31.164062 13.109375 31.027344 13.714844 31.027344 14.410156 C 31.027344 15.105469 31.167969 15.710938 31.441406 16.234375 C 31.699219 16.738281 32.097656 17.160156 32.585938 17.445312 C 33.09375 17.734375 33.667969 17.878906 34.253906 17.871094 C 34.824219 17.871094 35.324219 17.75 35.757812 17.503906 C 36.191406 17.261719 36.53125 16.894531 36.773438 16.398438 L 38.632812 16.398438 C 38.28125 17.296875 37.710938 17.992188 36.929688 18.476562 C 36.148438 18.964844 35.257812 19.207031 34.253906 19.207031 C 33.40625 19.21875 32.570312 19.003906 31.828125 18.59375 C 31.101562 18.191406 30.5 17.597656 30.085938 16.882812 C 29.65625 16.152344 29.441406 15.328125 29.441406 14.410156 C 29.441406 13.488281 29.65625 12.664062 30.085938 11.9375 Z M 30.085938 11.9375 "/><path style=" stroke:none;fill-rule:nonzero;fill:#005cff;fill-opacity:1;" d="M 40.699219 9.730469 L 42.242188 9.730469 L 42.242188 19.128906 L 40.699219 19.128906 Z M 40.699219 9.730469 "/><path style=" stroke:none;fill-rule:nonzero;fill:#005cff;fill-opacity:1;" d="M 53.605469 11.9375 C 54.019531 11.21875 54.625 10.628906 55.351562 10.226562 C 56.09375 9.816406 56.925781 9.601562 57.773438 9.609375 C 58.773438 9.609375 59.667969 9.855469 60.449219 10.347656 C 61.230469 10.839844 61.796875 11.535156 62.148438 12.4375 L 60.292969 12.4375 C 60.050781 11.941406 59.710938 11.570312 59.277344 11.328125 C 58.84375 11.085938 58.339844 10.960938 57.773438 10.960938 C 57.1875 10.953125 56.613281 11.097656 56.105469 11.382812 C 55.613281 11.664062 55.214844 12.082031 54.960938 12.585938 C 54.683594 13.109375 54.546875 13.714844 54.546875 14.410156 C 54.546875 15.105469 54.683594 15.710938 54.960938 16.234375 C 55.21875 16.738281 55.613281 17.160156 56.105469 17.445312 C 56.613281 17.734375 57.1875 17.878906 57.773438 17.871094 C 58.339844 17.871094 58.84375 17.75 59.277344 17.503906 C 59.710938 17.261719 60.046875 16.894531 60.292969 16.398438 L 62.148438 16.398438 C 61.796875 17.296875 61.230469 17.992188 60.449219 18.476562 C 59.667969 18.964844 58.773438 19.207031 57.773438 19.207031 C 56.921875 19.21875 56.085938 19.003906 55.347656 18.59375 C 54.621094 18.191406 54.019531 17.597656 53.605469 16.882812 C 53.175781 16.152344 52.960938 15.328125 52.960938 14.410156 C 52.960938 13.492188 53.175781 12.664062 53.605469 11.9375 Z M 53.605469 11.9375 "/><path style=" stroke:none;fill-rule:nonzero;fill:#005cff;fill-opacity:1;" d="M 65.734375 17.882812 L 70.121094 17.882812 L 70.121094 19.128906 L 64.191406 19.128906 L 64.191406 9.730469 L 65.734375 9.730469 Z M 65.734375 17.882812 "/><path style=" stroke:none;fill-rule:nonzero;fill:#005cff;fill-opacity:1;" d="M 49.664062 14.757812 L 52.234375 19.128906 L 50.394531 19.128906 L 47.984375 14.890625 Z M 49.664062 14.757812 "/><path style=" stroke:none;fill-rule:nonzero;fill:#005cff;fill-opacity:1;" d="M 47.503906 15.371094 L 46.324219 15.371094 L 46.324219 19.128906 L 44.78125 19.128906 L 44.78125 9.734375 L 48.035156 9.734375 C 48.757812 9.734375 49.367188 9.859375 49.871094 10.113281 C 50.371094 10.363281 50.746094 10.703125 50.996094 11.125 C 51.246094 11.554688 51.375 12.046875 51.367188 12.542969 C 51.371094 13.144531 51.183594 13.726562 50.832031 14.214844 C 50.476562 14.714844 49.929688 15.058594 49.183594 15.234375 C 49.183594 15.234375 48.730469 15.371094 47.503906 15.371094 Z M 46.324219 14.140625 L 48.035156 14.140625 C 48.609375 14.140625 49.046875 13.996094 49.339844 13.707031 C 49.632812 13.417969 49.78125 13.03125 49.78125 12.542969 C 49.78125 12.058594 49.636719 11.675781 49.347656 11.402344 C 49.058594 11.125 48.621094 10.988281 48.035156 10.988281 L 46.324219 10.988281 Z M 46.324219 14.140625 "/></g></svg>