<svg xmlns="http://www.w3.org/2000/svg" xmlns:xlink="http://www.w3.org/1999/xlink" width="500" zoomAndPan="magnify" viewBox="0 0 375 374.999991" height="500" preserveAspectRatio="xMidYMid meet" version="1.2"><g id="44c7bd1a82"><path style=" stroke:none;fill-rule:nonzero;fill:#2563eb;fill-opacity:1;" d="M 187.386719 3.398438 C 85.347656 3.398438 2.632812 86.117188 2.632812 188.152344 C 2.632812 290.191406 85.347656 372.910156 187.386719 372.910156 C 289.421875 372.910156 372.144531 290.191406 372.144531 188.15625 C 372.144531 86.117188 289.421875 3.398438 187.386719 3.398438 Z M 134.398438 86.558594 C 143.824219 86.558594 153.050781 89.242188 161.003906 94.300781 C 168.953125 99.355469 175.300781 106.570312 179.296875 115.101562 C 177.097656 115.355469 174.917969 115.707031 172.757812 116.164062 C 170.625 116.605469 168.515625 117.140625 166.433594 117.773438 C 163.203125 112.152344 158.550781 107.480469 152.941406 104.226562 C 147.332031 100.972656 140.96875 99.253906 134.484375 99.242188 C 128 99.230469 121.625 100.925781 116.007812 104.160156 C 110.386719 107.394531 105.71875 112.050781 102.46875 117.660156 C 99.21875 123.273438 97.503906 129.640625 97.496094 136.125 C 97.488281 142.605469 99.1875 148.980469 102.425781 154.597656 C 105.664062 160.214844 110.320312 164.882812 115.933594 168.128906 C 121.546875 171.375 127.917969 173.082031 134.398438 173.085938 C 134.921875 173.085938 135.433594 173.070312 135.949219 173.046875 C 144.660156 172.671875 152.957031 169.230469 159.378906 163.332031 C 165.796875 157.433594 169.929688 149.457031 171.039062 140.808594 C 175.203125 139.34375 179.539062 138.429688 183.9375 138.085938 C 183.453125 150.449219 178.367188 162.183594 169.671875 170.988281 C 160.980469 179.792969 149.308594 185.027344 136.953125 185.664062 C 136.109375 185.707031 135.257812 185.730469 134.402344 185.730469 C 133.460938 185.730469 132.53125 185.699219 131.605469 185.644531 C 131.539062 187.316406 131.550781 188.992188 131.632812 190.671875 C 131.675781 191.574219 131.726562 192.476562 131.816406 193.382812 C 131.9375 194.582031 132.109375 195.777344 132.304688 196.964844 C 134.230469 208.886719 139.984375 219.859375 148.695312 228.226562 L 140.058594 237.457031 C 131.007812 228.769531 124.507812 217.773438 121.265625 205.652344 C 120.714844 203.601562 120.261719 201.523438 119.902344 199.417969 C 119.632812 197.832031 119.402344 196.234375 119.238281 194.625 C 119.1875 194.085938 119.144531 193.546875 119.101562 193.011719 C 118.859375 189.78125 118.84375 186.535156 119.054688 183.300781 C 107.824219 179.652344 98.265625 172.117188 92.097656 162.046875 C 85.929688 151.980469 83.554688 140.039062 85.40625 128.378906 C 87.253906 116.714844 93.207031 106.09375 102.1875 98.429688 C 111.167969 90.765625 122.589844 86.554688 134.398438 86.558594 Z M 192.355469 257.671875 C 190.808594 257.773438 189.261719 257.824219 187.71875 257.824219 C 185.429688 257.824219 183.148438 257.699219 180.878906 257.472656 C 180.222656 259.226562 179.46875 260.9375 178.617188 262.605469 C 175.03125 269.667969 169.804688 275.773438 163.378906 280.402344 C 156.949219 285.035156 149.503906 288.054688 141.667969 289.21875 C 133.828125 290.378906 125.828125 289.644531 118.332031 287.078125 C 110.839844 284.511719 104.066406 280.183594 98.589844 274.460938 C 93.109375 268.738281 89.082031 261.785156 86.839844 254.1875 C 84.601562 246.585938 84.21875 238.558594 85.71875 230.78125 C 87.21875 223 90.5625 215.695312 95.464844 209.472656 C 100.371094 203.25 106.695312 198.296875 113.910156 195.023438 C 113.910156 195.0625 113.917969 195.105469 113.921875 195.144531 C 114.136719 197.316406 114.445312 199.464844 114.851562 201.59375 C 115.253906 203.742188 115.753906 205.863281 116.34375 207.957031 C 110.683594 211.136719 105.960938 215.753906 102.652344 221.34375 C 99.347656 226.929688 97.570312 233.292969 97.507812 239.785156 C 97.445312 246.28125 99.097656 252.675781 102.292969 258.328125 C 105.492188 263.980469 110.125 268.6875 115.722656 271.976562 C 121.320312 275.265625 127.6875 277.019531 134.183594 277.0625 C 140.675781 277.105469 147.066406 275.4375 152.707031 272.21875 C 158.351562 269.003906 163.042969 264.355469 166.316406 258.746094 C 169.585938 253.136719 171.320312 246.765625 171.34375 240.273438 C 171.34375 240.238281 171.34375 240.203125 171.34375 240.167969 C 171.332031 231.238281 168.089844 222.613281 162.21875 215.882812 C 156.34375 209.15625 148.234375 204.78125 139.386719 203.566406 C 138.691406 201.429688 138.136719 199.25 137.730469 197.039062 C 137.476562 195.65625 137.273438 194.253906 137.132812 192.84375 C 137.058594 192.113281 137.023438 191.378906 136.984375 190.648438 C 149.582031 191.304688 161.457031 196.746094 170.183594 205.851562 C 178.914062 214.960938 183.84375 227.054688 183.964844 239.671875 C 183.964844 239.835938 183.980469 239.996094 183.980469 240.160156 C 183.980469 241.800781 183.894531 243.417969 183.738281 245.015625 C 186.164062 245.191406 188.601562 245.207031 191.027344 245.066406 C 191.1875 245.058594 191.34375 245.0625 191.503906 245.050781 C 204.746094 244.15625 217.246094 238.601562 226.785156 229.367188 L 235.660156 238.363281 C 227.519531 246.28125 217.539062 252.050781 206.617188 255.164062 C 204.566406 255.75 202.480469 256.238281 200.371094 256.632812 C 198.242188 257.027344 196.089844 257.324219 193.917969 257.519531 C 193.398438 257.578125 192.875 257.636719 192.355469 257.671875 Z M 240.375 289.753906 C 231.234375 289.753906 222.269531 287.226562 214.472656 282.449219 C 206.675781 277.671875 200.355469 270.832031 196.203125 262.6875 C 198.433594 262.433594 200.640625 262.078125 202.828125 261.621094 C 204.988281 261.171875 207.121094 260.628906 209.222656 259.992188 C 212.585938 265.269531 217.234375 269.609375 222.734375 272.597656 C 228.234375 275.585938 234.402344 277.128906 240.660156 277.078125 C 246.917969 277.03125 253.0625 275.390625 258.515625 272.316406 C 263.964844 269.238281 268.546875 264.828125 271.824219 259.5 C 275.105469 254.167969 276.972656 248.089844 277.257812 241.835938 C 277.542969 235.585938 276.234375 229.363281 273.457031 223.753906 C 270.675781 218.148438 266.519531 213.335938 261.367188 209.777344 C 256.222656 206.21875 250.253906 204.027344 244.023438 203.40625 C 242.824219 203.289062 241.609375 203.226562 240.378906 203.226562 C 239.683594 203.226562 238.992188 203.25 238.304688 203.285156 C 229.378906 203.796875 220.9375 207.527344 214.546875 213.78125 C 208.15625 220.035156 204.25 228.394531 203.546875 237.308594 C 199.527344 238.621094 195.363281 239.429688 191.148438 239.722656 C 191.03125 239.734375 190.914062 239.730469 190.796875 239.738281 C 190.90625 226.90625 195.988281 214.617188 204.976562 205.457031 C 213.960938 196.296875 226.152344 190.976562 238.976562 190.617188 C 239.441406 190.605469 239.902344 190.582031 240.367188 190.582031 C 241.695312 190.582031 243.015625 190.652344 244.320312 190.753906 C 244.378906 189.085938 244.386719 187.410156 244.292969 185.730469 C 244.292969 185.667969 244.285156 185.609375 244.28125 185.550781 C 243.511719 172.285156 238.0625 159.722656 228.902344 150.097656 L 237.976562 141.300781 C 245.773438 149.457031 251.441406 159.40625 254.476562 170.273438 C 255.046875 172.324219 255.523438 174.398438 255.902344 176.503906 C 256.289062 178.625 256.574219 180.769531 256.757812 182.933594 C 256.816406 183.636719 256.882812 184.335938 256.917969 185.042969 C 257.070312 187.828125 257.054688 190.617188 256.871094 193.402344 C 267.902344 197.296875 277.203125 204.964844 283.125 215.054688 C 289.046875 225.140625 291.214844 237 289.238281 248.53125 C 287.265625 260.058594 281.277344 270.519531 272.332031 278.0625 C 263.390625 285.605469 252.074219 289.75 240.375 289.753906 Z M 261.929688 180.804688 C 261.6875 178.585938 261.347656 176.386719 260.914062 174.210938 C 260.480469 172.058594 259.957031 169.933594 259.335938 167.835938 C 264.808594 164.554688 269.339844 159.914062 272.484375 154.363281 C 275.628906 148.8125 277.28125 142.542969 277.28125 136.160156 C 277.28125 129.78125 275.628906 123.511719 272.484375 117.960938 C 269.339844 112.410156 264.8125 107.769531 259.339844 104.488281 C 253.867188 101.207031 247.640625 99.402344 241.261719 99.246094 C 234.882812 99.089844 228.574219 100.589844 222.945312 103.597656 C 217.320312 106.605469 212.570312 111.019531 209.160156 116.410156 C 205.746094 121.800781 203.789062 127.984375 203.476562 134.355469 C 203.449219 134.949219 203.429688 135.542969 203.429688 136.144531 C 203.429688 137.347656 203.492188 138.539062 203.605469 139.714844 C 204.441406 148.175781 208.164062 156.09375 214.152344 162.136719 C 220.136719 168.175781 228.019531 171.96875 236.476562 172.878906 C 237.847656 177.023438 238.675781 181.332031 238.9375 185.691406 C 226.367188 185.324219 214.40625 180.199219 205.476562 171.34375 C 196.542969 162.492188 191.3125 150.574219 190.839844 138.007812 C 190.816406 137.386719 190.792969 136.769531 190.792969 136.144531 C 190.792969 134.972656 190.847656 133.816406 190.925781 132.664062 C 189.910156 132.609375 188.894531 132.570312 187.875 132.570312 C 186.53125 132.570312 185.191406 132.628906 183.855469 132.726562 C 171.941406 133.578125 160.609375 138.214844 151.511719 145.953125 L 143.253906 136.390625 C 150.6875 130.042969 159.394531 125.355469 168.785156 122.648438 C 170.828125 122.054688 172.894531 121.558594 174.988281 121.15625 C 177.097656 120.757812 179.222656 120.453125 181.367188 120.242188 C 183.523438 120.039062 185.695312 119.929688 187.875 119.929688 C 189.734375 119.929688 191.589844 120.011719 193.4375 120.160156 C 196.074219 112.425781 200.578125 105.464844 206.550781 99.890625 C 212.527344 94.320312 219.785156 90.308594 227.679688 88.21875 C 235.578125 86.125 243.871094 86.019531 251.820312 87.902344 C 259.769531 89.789062 267.128906 93.609375 273.242188 99.027344 C 279.359375 104.441406 284.042969 111.285156 286.878906 118.945312 C 289.710938 126.609375 290.609375 134.851562 289.488281 142.945312 C 288.371094 151.039062 285.269531 158.726562 280.460938 165.332031 C 275.652344 171.9375 269.285156 177.253906 261.929688 180.804688 Z M 261.929688 180.804688 "/></g></svg>